<svg id="Layer_1" data-name="Layer 1" xmlns="http://www.w3.org/2000/svg" viewBox="0 0 437.33 263.05"><defs><style>.cls-1{fill:#fff;}</style></defs><title>cre8-logo-white</title><path class="cls-1" d="M70.29,192.79a2.18,2.18,0,0,1,2.2,2,22.59,22.59,0,0,1,.66,6.17c0,1.1-.88,2.2-2.42,3.31-8.15,2.86-23.36,4.19-28.21,4.19C26,208.44,0,203.81,0,169V116.55C0,82,26,76,42.53,76,46.71,76,62.8,77.55,71,81.07c1.54,1.1,2.2,2.2,2.2,3.31A13.52,13.52,0,0,1,72.5,89a2.18,2.18,0,0,1-2.2,2,1.65,1.65,0,0,1-1.1-.22c-9.47-2.42-17-4-24.24-4-10.36,0-33.71,2.2-33.71,28.65v54c0,27.32,23.36,28.21,33.71,28.21,6.83,0,13.88-.88,24.24-4.63A1.66,1.66,0,0,1,70.29,192.79Z" transform="translate(0 0)"/><path class="cls-1" d="M176.06,202.27c0,3.31-1.54,4.85-4.63,4.85h-2c-2.2,0-3.75-.88-4.41-2.86l-5.95-16.09c-4.85-13.22-17.85-32.17-29.31-40.54H106.87v55.09c0,2.42-1.32,4.41-4.19,4.41H99.82c-2.87,0-4.19-2-4.19-4.41V82.18c0-2.42,1.32-4.41,4.19-4.41h34.82c31.07,0,40.1,16.09,40.1,34.6,0,16.31-6.83,31.07-29.53,34.6l0.88,1.32C154,152,165,173,167.91,180.67Zm-69.19-65.44h24.68c13.44,0,32-.44,32-24.46,0-23.8-18.51-23.8-32-23.8H106.87v48.26Z" transform="translate(0 0)"/><path class="cls-1" d="M264.64,77.77a3.15,3.15,0,0,1,3.08,3.08V85.7c0,2-1.1,2.86-3.08,2.86H206v47.82h45.83c2,0,3.08.88,3.08,2.64v5.29c0,2-1.1,2.86-3.08,2.86H206v49.14h58.61c2,0,3.08.88,3.08,2.86v5.07c0,2-1.1,2.86-3.08,2.86H199c-2.87,0-4.19-2-4.19-4.41V82.18c0-2.42,1.32-4.41,4.19-4.41h65.67Z" transform="translate(0 0)"/><path class="cls-1" d="M322.31,116.81A8,8,0,0,0,326,111a7.49,7.49,0,0,0-1.85-6.42,53,53,0,0,1-9.57-19.1,53.44,53.44,0,0,1,4.62-39.86,50.73,50.73,0,0,1,13.7-16.07,52.07,52.07,0,0,1,18.79-9.45,51.54,51.54,0,0,1,20.16-1.29,56.63,56.63,0,0,1,19.36,6.32,50.65,50.65,0,0,1,16.07,13.7,51.66,51.66,0,0,1,10.75,38.95,55.87,55.87,0,0,1-6.49,19.49,51.91,51.91,0,0,1-13.86,16.2l-52,43.5a8.52,8.52,0,0,0-3.45,6,7.68,7.68,0,0,0,1.84,6.58,8.44,8.44,0,0,0,6.15,3.6,9.39,9.39,0,0,0,6.7-1.67L409,127.67a72.39,72.39,0,0,0,18.56-21.49,68.71,68.71,0,0,0,8.51-26,74.83,74.83,0,0,0-2-27.5,77.58,77.58,0,0,0-12.4-26.07,71.54,71.54,0,0,0-21.27-17.8,70.32,70.32,0,0,0-26-8.35A75.38,75.38,0,0,0,347,2.38,67.29,67.29,0,0,0,321.7,15a70.89,70.89,0,0,0-18.41,21.37A69.06,69.06,0,0,0,295,62.18a73.47,73.47,0,0,0,2,27.36,70,70,0,0,0,13,25.69,8.23,8.23,0,0,0,6,3.6A7.74,7.74,0,0,0,322.31,116.81Z" transform="translate(0 0)"/><path class="cls-1" d="M409.49,146.24a8,8,0,0,0-3.73,5.84,7.48,7.48,0,0,0,1.85,6.42,52.94,52.94,0,0,1,9.57,19.1,53.43,53.43,0,0,1-4.62,39.86,50.67,50.67,0,0,1-13.7,16.06,51.65,51.65,0,0,1-38.95,10.75A56.65,56.65,0,0,1,340.56,238a50.69,50.69,0,0,1-16.06-13.7,51.66,51.66,0,0,1-10.76-38.95,55.88,55.88,0,0,1,6.49-19.49,52,52,0,0,1,13.86-16.2l52-43.5a8.49,8.49,0,0,0,3.45-6,7.66,7.66,0,0,0-1.83-6.58,8.43,8.43,0,0,0-6.15-3.61,9.4,9.4,0,0,0-6.7,1.68l-52.05,43.79a72.38,72.38,0,0,0-18.57,21.49,68.71,68.71,0,0,0-8.5,26,74.92,74.92,0,0,0,2,27.51,77.64,77.64,0,0,0,12.4,26.07,71.53,71.53,0,0,0,21.27,17.8,70.34,70.34,0,0,0,26,8.35,75.43,75.43,0,0,0,27.34-1.88,67.24,67.24,0,0,0,25.35-12.62,70.83,70.83,0,0,0,18.41-21.36,69.09,69.09,0,0,0,8.34-25.83,73.46,73.46,0,0,0-2-27.36,70,70,0,0,0-13-25.69,8.24,8.24,0,0,0-6-3.59A7.73,7.73,0,0,0,409.49,146.24Z" transform="translate(0 0)"/></svg>